<?xml version="1.0" encoding="UTF-8"?>
<!DOCTYPE svg PUBLIC "-//W3C//DTD SVG 1.1//EN" "http://www.w3.org/Graphics/SVG/1.1/DTD/svg11.dtd">
<!-- Creator: CorelDRAW 2021 (64-Bit) -->
<svg xmlns="http://www.w3.org/2000/svg" xml:space="preserve" width="25px" height="25px" version="1.1" style="shape-rendering:geometricPrecision; text-rendering:geometricPrecision; image-rendering:optimizeQuality; fill-rule:evenodd; clip-rule:evenodd"
viewBox="0 0 25 25"
 xmlns:xlink="http://www.w3.org/1999/xlink"
 xmlns:xodm="http://www.corel.com/coreldraw/odm/2003">
 <defs>
  <style type="text/css">
   <![CDATA[
    .fil0 {fill:black}
   ]]>
  </style>
 </defs>
 <g id="Capa_x0020_1">
  <metadata id="CorelCorpID_0Corel-Layer"/>
  <path class="fil0" d="M17.24 0c4.28,0 7.76,3.45 7.76,7.71 0,4.25 -3.48,7.7 -7.76,7.7 -4.29,0 -7.76,-3.45 -7.76,-7.7 0,-4.26 3.47,-7.71 7.76,-7.71zm0 1.93c3.21,0 5.82,2.59 5.82,5.78 0,3.19 -2.61,5.78 -5.82,5.78 -3.22,0 -5.82,-2.59 -5.82,-5.78 0,-3.19 2.6,-5.78 5.82,-5.78z"/>
  <rect class="fil0" transform="matrix(0.369147 0.386968 -0.844788 0.842033 11.3986 12.1849)" width="3.76" height="13.59" rx="0.38" ry="0.38"/>
 </g>
</svg>
