<?xml version="1.0" encoding="UTF-8"?>
<!DOCTYPE svg PUBLIC "-//W3C//DTD SVG 1.1//EN" "http://www.w3.org/Graphics/SVG/1.1/DTD/svg11.dtd">
<!-- Creator: CorelDRAW 2021 (64-Bit) -->
<svg xmlns="http://www.w3.org/2000/svg" xml:space="preserve" width="25px" height="25px" version="1.1" style="shape-rendering:geometricPrecision; text-rendering:geometricPrecision; image-rendering:optimizeQuality; fill-rule:evenodd; clip-rule:evenodd"
viewBox="0 0 25 25"
 xmlns:xlink="http://www.w3.org/1999/xlink"
 xmlns:xodm="http://www.corel.com/coreldraw/odm/2003">
 <defs>
  <style type="text/css">
   <![CDATA[
    .str0 {stroke:black;stroke-width:1.41;stroke-linecap:round;stroke-linejoin:round;stroke-miterlimit:22.9256}
    .fil0 {fill:none}
   ]]>
  </style>
 </defs>
 <g id="Capa_x0020_1">
  <metadata id="CorelCorpID_0Corel-Layer"/>
  <path class="fil0 str0" d="M3.82 4.17l3.21 1.32c0.72,-0.37 1.41,-0.82 2.07,-1.19l0.55 -3.57c1.93,-0.02 3.93,-0.05 5.79,0.01l0.54 3.59c0.76,0.37 1.42,0.73 2.03,1.22 1.06,-0.56 2.18,-1 3.33,-1.37 1.29,1.6 2.23,3.17 2.94,4.7l-2.8 2.44c0.08,0.81 0.06,1.61 0,2.42l2.75 2.17c-0.79,1.62 -1.74,3.23 -2.82,4.84l-3.4 -1.14c-0.64,0.41 -1.34,0.78 -2.08,1.14l-0.62 3.49c-1.93,0.02 -3.83,0.04 -5.71,0l-0.51 -3.54c-0.7,-0.32 -1.4,-0.71 -2.08,-1.18l-3.31 1.3c-1.12,-1.56 -2.07,-3.22 -2.98,-4.89l2.87 -2.19c-0.06,-0.82 0,-1.59 0.04,-2.35l-2.84 -2.31c0.92,-1.68 1.95,-3.45 3.03,-4.91z"/>
  <ellipse class="fil0 str0" cx="12.54" cy="12.54" rx="4.19" ry="4.14"/>
 </g>
</svg>
