<?xml version="1.0" encoding="UTF-8"?>
<!DOCTYPE svg PUBLIC "-//W3C//DTD SVG 1.1//EN" "http://www.w3.org/Graphics/SVG/1.1/DTD/svg11.dtd">
<!-- Creator: CorelDRAW 2021 (64-Bit) -->
<svg xmlns="http://www.w3.org/2000/svg" xml:space="preserve" width="25px" height="25px" version="1.1" style="shape-rendering:geometricPrecision; text-rendering:geometricPrecision; image-rendering:optimizeQuality; fill-rule:evenodd; clip-rule:evenodd"
viewBox="0 0 25 25"
 xmlns:xlink="http://www.w3.org/1999/xlink"
 xmlns:xodm="http://www.corel.com/coreldraw/odm/2003">
 <defs>
  <style type="text/css">
   <![CDATA[
    .str0 {stroke:black;stroke-width:1.41;stroke-linecap:round;stroke-linejoin:round;stroke-miterlimit:22.9256}
    .fil0 {fill:none}
   ]]>
  </style>
 </defs>
 <g id="Capa_x0020_1">
  <metadata id="CorelCorpID_0Corel-Layer"/>
  <polygon class="fil0 str0" points="0.74,5.82 24.3,5.71 24.3,24.28 0.84,24.28 "/>
  <path class="fil0 str0" d="M0.78 12c0.71,1.44 2.08,3.03 3.63,3.05 1,0.01 2.12,0.02 3.31,0.03m9.6 0.04c1.15,0 2.23,0 3.2,-0.01 1.43,-0.02 3.08,-1.27 3.78,-2.85m-16.58 0.43l9.55 0 0 4.66 -9.55 0 0 -2.27 0 -0.02 0 -2.37z"/>
  <polyline class="fil0 str0" points="7.72,5.6 7.72,0.72 17.27,0.72 17.27,5.6 "/>
 </g>
</svg>
