<?xml version="1.0" encoding="UTF-8"?>
<!DOCTYPE svg PUBLIC "-//W3C//DTD SVG 1.1//EN" "http://www.w3.org/Graphics/SVG/1.1/DTD/svg11.dtd">
<!-- Creator: CorelDRAW 2021 (64-Bit) -->
<svg xmlns="http://www.w3.org/2000/svg" xml:space="preserve" width="25px" height="25px" version="1.1" style="shape-rendering:geometricPrecision; text-rendering:geometricPrecision; image-rendering:optimizeQuality; fill-rule:evenodd; clip-rule:evenodd"
viewBox="0 0 25 25"
 xmlns:xlink="http://www.w3.org/1999/xlink"
 xmlns:xodm="http://www.corel.com/coreldraw/odm/2003">
 <defs>
  <style type="text/css">
   <![CDATA[
    .str0 {stroke:black;stroke-width:0.31;stroke-linecap:round;stroke-linejoin:round;stroke-miterlimit:22.9256}
    .fil0 {fill:none}
    .fil1 {fill:black}
   ]]>
  </style>
 </defs>
 <g id="Capa_x0020_1">
  <metadata id="CorelCorpID_0Corel-Layer"/>
  <path class="fil0 str0" d="M24.99 4.7l0.01 8.88c-0.67,0.65 -1.64,1.27 -2.33,1.27l-2.69 -0.01 0 -1.64c0,-0.31 -0.23,-0.56 -0.51,-0.56l-1.31 0c-0.29,0 -0.52,0.25 -0.52,0.56l0 1.64 -10.14 -0.01 0 -1.63c0,-0.31 -0.24,-0.56 -0.52,-0.56l-1.31 0c-0.28,0 -0.52,0.25 -0.52,0.56l0 1.62 -2.82 0c-0.82,-0.06 -2.33,-0.93 -2.33,-1.39l0 -8.75 24.99 0.02z"/>
  <path class="fil0 str0" d="M6.66 4.68l0.01 -3.49c-0.01,-1.04 1.4,-1.16 2.13,-1.16l7.37 -0.03c0.61,0 2.33,0.09 2.33,1.13l0.01 3.56 -1.88 0 0.03 -2.22c0,-0.43 -0.59,-0.72 -0.98,-0.72l-6.35 0.04c-0.44,0 -0.89,0.19 -0.88,0.71l0.02 2.18 -1.81 0z"/>
  <path class="fil0 str0" d="M0 14.95c1.1,1.05 3.27,1.03 4.95,1.03l0.2 0 0 1.72c0,0.31 0.24,0.56 0.52,0.56l1.31 0c0.28,0 0.52,-0.25 0.52,-0.56l0 -1.72 10.14 0 0 1.72c0,0.31 0.23,0.56 0.52,0.56l1.31 0c0.28,0 0.51,-0.25 0.51,-0.56l0 -1.72 0.13 0c2.69,0 3.76,0.01 4.89,-1.03l0 10.05 -24.94 0 -0.06 -10.05z"/>
  <rect class="fil1" x="5.74" y="13.48" width="1.18" height="3.95" rx="0.26" ry="0.28"/>
  <rect class="fil1" x="18.22" y="13.48" width="1.18" height="3.95" rx="0.26" ry="0.28"/>
 </g>
</svg>
