<?xml version="1.0" encoding="UTF-8"?>
<!DOCTYPE svg PUBLIC "-//W3C//DTD SVG 1.1//EN" "http://www.w3.org/Graphics/SVG/1.1/DTD/svg11.dtd">
<!-- Creator: CorelDRAW 2021 (64-Bit) -->
<svg xmlns="http://www.w3.org/2000/svg" xml:space="preserve" width="25px" height="25px" version="1.1" style="shape-rendering:geometricPrecision; text-rendering:geometricPrecision; image-rendering:optimizeQuality; fill-rule:evenodd; clip-rule:evenodd"
viewBox="0 0 25 25"
 xmlns:xlink="http://www.w3.org/1999/xlink"
 xmlns:xodm="http://www.corel.com/coreldraw/odm/2003">
 <defs>
  <style type="text/css">
   <![CDATA[
    .str0 {stroke:black;stroke-width:1.41;stroke-linecap:round;stroke-linejoin:round;stroke-miterlimit:22.9256}
    .fil0 {fill:none}
   ]]>
  </style>
 </defs>
 <g id="Capa_x0020_1">
  <metadata id="CorelCorpID_0Corel-Layer"/>
  <path class="fil0 str0" d="M24.16 6l0 6.58c-1.41,1.08 -1.99,0.94 -3.68,0.94l-0.76 0 0 4.59 -4.44 0 0 -4.6 -5.56 0 0 4.6 -4.44 0 0 -4.61 -0.75 0c-0.81,0 -3.7,-0.1 -3.7,-1.03l0.01 -6.49 23.32 0.02z"/>
  <path class="fil0 str0" d="M5.7 5.9l0.08 -3.36c-0.01,-1 1.77,-1.67 3.33,-1.68l6.87 -0.02c1.6,-0.01 3.35,0.64 3.36,1.64l0.02 3.43 -3 0 0.02 -1.82c0,-0.41 -0.51,-0.72 -0.88,-0.71l-5.92 0.03c-0.41,0 -0.86,0.2 -0.86,0.7l0.02 1.79 -3.04 0z"/>
  <path class="fil0 str0" d="M0.83 15.07c1.1,1.02 2.15,0.94 3.55,0.94l0.9 0 0 -4.56 4.44 0 0 4.56 5.56 0 0 -4.56 4.44 0 0 4.56 0.66 0c1.57,0 2.52,0.2 3.78,-0.94l0 9.1 -23.27 0 -0.06 -9.1z"/>
 </g>
</svg>
